<svg width="16" height="20" viewBox="0 0 16 20" fill="none" xmlns="http://www.w3.org/2000/svg">
<path d="M3.42857 20V4.25L1.6 6L0 4.44444L4.57143 0L9.14286 4.44444L7.54286 6.02778L5.71429 4.25V11.5C6.38095 10.9259 7.13333 10.5139 7.97143 10.2639C8.80952 10.0139 9.64762 9.88889 10.4857 9.88889C10.6952 9.88889 10.8952 9.89815 11.0857 9.91667C11.2762 9.93519 11.4571 9.96296 11.6286 10L9.82857 8.22222L11.4286 6.66667L16 11.1111L11.4286 15.5556L9.82857 14L11.6286 12.2222C11.419 12.1852 11.2095 12.1528 11 12.125C10.7905 12.0972 10.581 12.0833 10.3714 12.0833C9.34286 12.0833 8.39524 12.3657 7.52857 12.9306C6.66191 13.4954 6.05714 14.3704 5.71429 15.5556V20H3.42857Z" fill="black"/>
</svg>
