<svg width="35" height="35" viewBox="0 0 35 35" fill="none" xmlns="http://www.w3.org/2000/svg">
<mask id="mask0_26_7648" style="mask-type:alpha" maskUnits="userSpaceOnUse" x="0" y="0" width="35" height="35">
<rect x="0.968018" y="0.894958" width="33.2831" height="33.2831" fill="#D9D9D9"/>
</mask>
<g mask="url(#mask0_26_7648)">
<path d="M17.6097 30.0177L15.5988 28.2149C13.2644 26.1116 11.3344 24.2972 9.80893 22.7717C8.28346 21.2462 7.07001 19.8768 6.16859 18.6633C5.26717 17.4499 4.63734 16.3347 4.27908 15.3177C3.92083 14.3007 3.7417 13.2606 3.7417 12.1974C3.7417 10.0247 4.46977 8.21035 5.9259 6.75421C7.38204 5.29808 9.19643 4.57001 11.3691 4.57001C12.571 4.57001 13.7151 4.82425 14.8014 5.33275C15.8877 5.84124 16.8238 6.55775 17.6097 7.48228C18.3955 6.55775 19.3316 5.84124 20.4179 5.33275C21.5042 4.82425 22.6484 4.57001 23.8502 4.57001C26.0229 4.57001 27.8373 5.29808 29.2934 6.75421C30.7496 8.21035 31.4776 10.0247 31.4776 12.1974C31.4776 13.2606 31.2985 14.3007 30.9402 15.3177C30.582 16.3347 29.9521 17.4499 29.0507 18.6633C28.1493 19.8768 26.9359 21.2462 25.4104 22.7717C23.8849 24.2972 21.955 26.1116 19.6205 28.2149L17.6097 30.0177Z" fill="#27C419"/>
</g>
</svg>
