<svg width="28" height="28" viewBox="0 0 28 28" fill="none" xmlns="http://www.w3.org/2000/svg">
<mask id="mask0_33_446" style="mask-type:alpha" maskUnits="userSpaceOnUse" x="0" y="0" width="28" height="28">
<rect width="28" height="28" fill="#D9D9D9"/>
</mask>
<g mask="url(#mask0_33_446)">
<path d="M8.25031 22.4038V19.7496H16.5964C17.7656 19.7496 18.7779 19.3712 19.6332 18.6143C20.4886 17.8575 20.9162 16.9167 20.9162 15.7919C20.9162 14.667 20.4886 13.725 19.6332 12.9659C18.7779 12.2067 17.7656 11.8271 16.5964 11.8271H9.47656L12.3634 14.7139L10.5069 16.5705L4.42944 10.5L10.5069 4.42952L12.3634 6.28606L9.47656 9.17292H16.5964C18.5104 9.17292 20.1513 9.80751 21.5189 11.0767C22.8866 12.3458 23.5704 13.9152 23.5704 15.7849C23.5704 17.6545 22.8866 19.2251 21.5189 20.4966C20.1513 21.7681 18.5104 22.4038 16.5964 22.4038H8.25031Z" fill="#1C1B1F"/>
</g>
</svg>
