<svg width="25" height="25" viewBox="0 0 25 25" fill="none" xmlns="http://www.w3.org/2000/svg">
<mask id="mask0_82_24348" style="mask-type:alpha" maskUnits="userSpaceOnUse" x="0" y="0" width="25" height="25">
<rect width="25" height="25" fill="#D9D9D9"/>
</mask>
<g mask="url(#mask0_82_24348)">
<path d="M7.36632 20.0034V17.6336H14.8182C15.8621 17.6336 16.7659 17.2957 17.5296 16.6199C18.2933 15.9442 18.6752 15.1041 18.6752 14.0998C18.6752 13.0955 18.2933 12.2545 17.5296 11.5766C16.7659 10.8988 15.8621 10.5599 14.8182 10.5599H8.46119L11.0387 13.1374L9.38114 14.7951L3.95483 9.37497L9.38114 3.9549L11.0387 5.61252L8.46119 8.19008H14.8182C16.5271 8.19008 17.9922 8.75667 19.2133 9.88987C20.4344 11.023 21.045 12.4243 21.045 14.0936C21.045 15.7629 20.4344 17.1652 19.2133 18.3005C17.9922 19.4357 16.5271 20.0034 14.8182 20.0034H7.36632Z" fill="white"/>
</g>
</svg>
